<svg width="400" height="400" viewBox="0 0 400 400" fill="none" xmlns="http://www.w3.org/2000/svg">
  <defs>
    <!-- Градиент в стиле Gemini -->
    <linearGradient id="gemini-gradient" x1="0%" y1="0%" x2="100%" y2="100%">
      <stop offset="0%" stop-color="#4E8AFF" />
      <stop offset="50%" stop-color="#A277FF" />
      <stop offset="100%" stop-color="#FF8EAD" />
    </linearGradient>
  </defs>

  <!-- Основная большая звезда -->
  <path d="M200 40C200 140 260 200 360 200C260 200 200 260 200 360C200 260 140 200 40 200C140 200 200 140 200 40Z" 
        fill="url(#gemini-gradient)" />

  <!-- Маленькая звездочка 1 -->
  <path d="M330 70C330 90 342 102 362 102C342 102 330 114 330 134C330 114 318 102 298 102C318 102 330 90 330 70Z" 
        fill="#A277FF" opacity="0.8" />

  <!-- Маленькая звездочка 2 -->
  <path d="M85 280C85 295 94 304 109 304C94 304 85 313 85 328C85 313 76 304 61 304C76 304 85 295 85 280Z" 
        fill="#4E8AFF" opacity="0.6" />
</svg>
